<svg xmlns="http://www.w3.org/2000/svg" width="502" height="694" viewBox="0 0 502 694" role="img" aria-labelledby="title desc">
  <title id="title">Dooday menu bar screenshot</title>
  <desc id="desc">A macOS desktop screenshot style image showing the Dooday calendar popover with meetings for today.</desc>
  <defs>
    <linearGradient id="sky" x1="0" x2="0" y1="0" y2="1">
      <stop offset="0" stop-color="#328eca"/>
      <stop offset="0.58" stop-color="#65b6df"/>
      <stop offset="1" stop-color="#d9eef6"/>
    </linearGradient>
    <linearGradient id="lake" x1="0" x2="1" y1="0" y2="0">
      <stop offset="0" stop-color="#8bb7be"/>
      <stop offset="0.55" stop-color="#2b88af"/>
      <stop offset="1" stop-color="#116c97"/>
    </linearGradient>
    <filter id="softShadow" x="-20%" y="-20%" width="140%" height="140%">
      <feDropShadow dx="0" dy="18" stdDeviation="18" flood-color="#17201b" flood-opacity="0.24"/>
    </filter>
  </defs>

  <rect width="502" height="694" fill="url(#sky)"/>
  <path d="M0 518 C80 470 129 500 190 456 C260 408 330 462 394 430 C430 412 463 405 502 420 L502 694 L0 694 Z" fill="#d7e7ea"/>
  <path d="M0 533 C77 492 119 520 183 480 C247 438 318 483 392 452 C441 432 470 430 502 444 L502 694 L0 694 Z" fill="#f2f5f4"/>
  <path d="M0 562 C78 530 132 558 210 518 C274 486 332 522 397 502 C445 487 477 487 502 493 L502 694 L0 694 Z" fill="#405c60"/>
  <rect x="0" y="563" width="502" height="131" fill="url(#lake)" opacity="0.84"/>
  <path d="M28 623 C82 586 107 646 164 599 C214 557 244 628 302 582 C354 541 398 623 474 582 L502 694 L0 694 Z" fill="#607171"/>
  <path d="M-30 681 C42 629 102 700 174 652 C242 605 316 681 392 633 C444 601 484 623 536 599 L536 694 L-30 694 Z" fill="#2c3e3e"/>

  <g transform="translate(238 41)">
    <rect x="0" y="0" width="17" height="17" rx="5" fill="#f7e8d5"/>
    <circle cx="6" cy="8" r="4" fill="#85614a"/>
    <circle cx="12" cy="8" r="4" fill="#85614a"/>
    <circle cx="5" cy="5" r="1" fill="#2f3742"/>
    <circle cx="11" cy="5" r="1" fill="#2f3742"/>
    <text x="8.5" y="28" text-anchor="middle" font-family="-apple-system,BlinkMacSystemFont,Segoe UI,sans-serif" font-size="10" font-weight="700" fill="#ffffff">6</text>
  </g>
  <g fill="#eef8ff" font-family="-apple-system,BlinkMacSystemFont,Segoe UI,sans-serif" font-size="12" font-weight="800" opacity="0.96">
    <rect x="275" y="40" width="17" height="17" rx="5"/>
    <text x="283.5" y="53" text-anchor="middle" fill="#2f8cd0">6</text>
    <circle cx="317" cy="49" r="9"/>
    <text x="317" y="53" text-anchor="middle" fill="#2f8cd0">zm</text>
    <path d="M351 39 L354 46 L361 43 L357 50 L364 54 L356 55 L357 63 L352 57 L346 63 L348 55 L340 54 L347 50 L343 43 L350 46 Z"/>
    <path d="M388 43 C398 39 406 46 404 55 C398 54 391 54 385 56 C384 51 384 47 388 43Z"/>
    <circle cx="401" cy="56" r="3" fill="#f13737"/>
    <path d="M427 39 C435 39 441 45 441 52 C441 59 435 65 427 65 C420 65 414 59 414 52 C414 45 420 39 427 39Z" fill="none" stroke="#eef8ff" stroke-width="2"/>
    <path d="M427 45 L427 52 L433 52" fill="none" stroke="#eef8ff" stroke-width="2" stroke-linecap="round"/>
    <path d="M463 41 L471 37 L471 52 L463 57Z"/>
    <rect x="492" y="41" width="34" height="15" rx="3"/>
  </g>

  <g filter="url(#softShadow)">
    <path d="M238 74 L252 60 L266 74 Z" fill="#f7efe2"/>
    <rect x="112" y="74" width="273" height="539" rx="19" fill="#f8efe2"/>
    <rect x="119" y="136" width="258" height="186" rx="8" fill="#fffdfa" stroke="#eadcc8"/>
    <rect x="119" y="359" width="258" height="206" rx="9" fill="#fffffb" opacity="0.92"/>

    <g transform="translate(123 82)">
      <circle cx="15" cy="15" r="15" fill="#d6b08c"/>
      <circle cx="10" cy="13" r="6.4" fill="#704b36"/>
      <circle cx="20" cy="13" r="6.4" fill="#704b36"/>
      <circle cx="9" cy="8" r="1.4" fill="#2f3742"/>
      <circle cx="18" cy="8" r="1.4" fill="#2f3742"/>
      <path d="M9 20 C13 24 19 24 23 20" fill="none" stroke="#704b36" stroke-width="1.6" stroke-linecap="round"/>
    </g>
    <text x="160" y="104" font-family="-apple-system,BlinkMacSystemFont,Segoe UI,sans-serif" font-size="17" font-weight="800" fill="#3b4350">5월 2026</text>
    <circle cx="306" cy="97" r="10" fill="#fffdfa"/>
    <path d="M309 92 L304 97 L309 102" fill="none" stroke="#76808f" stroke-width="2" stroke-linecap="round" stroke-linejoin="round"/>
    <circle cx="335" cy="97" r="10" fill="#fffdfa"/>
    <circle cx="335" cy="97" r="2.4" fill="#76808f"/>
    <circle cx="365" cy="97" r="10" fill="#fffdfa"/>
    <path d="M362 92 L367 97 L362 102" fill="none" stroke="#76808f" stroke-width="2" stroke-linecap="round" stroke-linejoin="round"/>

    <g font-family="-apple-system,BlinkMacSystemFont,Segoe UI,sans-serif" font-size="12" font-weight="800">
      <text x="137" y="128" fill="#d94646">일</text>
      <text x="173" y="128" fill="#737b86">월</text>
      <text x="209" y="128" fill="#737b86">화</text>
      <text x="245" y="128" fill="#737b86">수</text>
      <text x="282" y="128" fill="#737b86">목</text>
      <text x="318" y="128" fill="#3b4350">금</text>
      <text x="354" y="128" fill="#3a66c7">토</text>
    </g>

    <g font-family="-apple-system,BlinkMacSystemFont,Segoe UI,sans-serif" font-size="14" font-weight="800" text-anchor="middle">
      <g fill="#c8c6c2">
        <text x="140" y="156">26</text><text x="176" y="156">27</text><text x="212" y="156">28</text><text x="248" y="156">29</text><text x="284" y="156">30</text><text x="320" y="156">1</text>
      </g>
      <rect x="341" y="140" width="29" height="29" rx="7" fill="#e9f0ff"/>
      <text x="355" y="156" fill="#3a66c7">2</text>
      <text x="140" y="186" fill="#e03448">3</text><text x="176" y="186" fill="#3b4350">4</text><text x="212" y="186" fill="#e03448">5</text>
      <rect x="233" y="170" width="29" height="29" rx="7" fill="#d8c1a8" stroke="#ab8d73"/>
      <text x="248" y="186" fill="#3b4350">6</text><text x="284" y="186" fill="#3b4350">7</text><text x="320" y="186" fill="#3b4350">8</text>
      <rect x="341" y="170" width="29" height="29" rx="7" fill="#e9f0ff"/>
      <text x="355" y="186" fill="#3a66c7">9</text>
      <text x="140" y="216" fill="#e03448">10</text><text x="176" y="216" fill="#3b4350">11</text><text x="212" y="216" fill="#3b4350">12</text><text x="248" y="216" fill="#3b4350">13</text><text x="284" y="216" fill="#3b4350">14</text><text x="320" y="216" fill="#3b4350">15</text>
      <rect x="341" y="200" width="29" height="29" rx="7" fill="#e9f0ff"/>
      <text x="355" y="216" fill="#3a66c7">16</text>
      <text x="140" y="246" fill="#e03448">17</text><text x="176" y="246" fill="#3b4350">18</text><text x="212" y="246" fill="#3b4350">19</text><text x="248" y="246" fill="#3b4350">20</text><text x="284" y="246" fill="#3b4350">21</text><text x="320" y="246" fill="#3b4350">22</text>
      <rect x="341" y="230" width="29" height="29" rx="7" fill="#e9f0ff"/>
      <text x="355" y="246" fill="#3a66c7">23</text>
      <text x="140" y="276" fill="#e03448">24</text><text x="176" y="276" fill="#3b4350">25</text><text x="212" y="276" fill="#3b4350">26</text><text x="248" y="276" fill="#3b4350">27</text><text x="284" y="276" fill="#3b4350">28</text><text x="320" y="276" fill="#3b4350">29</text>
      <rect x="341" y="260" width="29" height="29" rx="7" fill="#e9f0ff"/>
      <text x="355" y="276" fill="#3a66c7">30</text>
      <text x="140" y="306" fill="#e03448">31</text><text x="176" y="306" fill="#c8c6c2">1</text><text x="212" y="306" fill="#c8c6c2">2</text><text x="248" y="306" fill="#c8c6c2">3</text><text x="284" y="306" fill="#c8c6c2">4</text><text x="320" y="306" fill="#c8c6c2">5</text><text x="355" y="306" fill="#c8c6c2">6</text>
    </g>

    <g fill="#5ed3ef">
      <circle cx="246" cy="196" r="2"/><circle cx="254" cy="196" r="2"/><circle cx="262" cy="196" r="2"/>
      <circle cx="285" cy="196" r="2"/><circle cx="285" cy="226" r="2"/>
    </g>
    <circle cx="356" cy="318" r="2" fill="#ef5b5b"/>

    <line x1="119" y1="326" x2="377" y2="326" stroke="#eadcc8"/>
    <text x="120" y="350" font-family="-apple-system,BlinkMacSystemFont,Segoe UI,sans-serif" font-size="15" font-weight="900" fill="#4c5561">오늘</text>
    <text x="349" y="350" font-family="-apple-system,BlinkMacSystemFont,Segoe UI,sans-serif" font-size="15" font-weight="900" text-anchor="middle" fill="#6a7280">5. 6.</text>

    <g transform="translate(124 360)">
      <rect width="247" height="206" rx="9" fill="#fcfffc"/>
      <text x="23" y="20" font-family="-apple-system,BlinkMacSystemFont,Segoe UI,sans-serif" font-size="13" font-weight="900" fill="#394250">미팅</text>
      <rect x="7" y="9" width="15" height="13" rx="4" fill="#edf9ff" stroke="#89d8ee"/>
      <path d="M10 14 H17 M17 14 L22 11 V21 L17 18" fill="none" stroke="#4a8faa" stroke-width="1.3" stroke-linejoin="round"/>
      <g font-family="-apple-system,BlinkMacSystemFont,Segoe UI,sans-serif">
        <g transform="translate(0 31)">
          <rect x="0" y="0" width="247" height="37" rx="6" fill="#ffffff" stroke="#eef1ec"/>
          <circle cx="11" cy="12" r="3" fill="#64d2ec"/>
          <text x="22" y="14" font-size="12" font-weight="900" fill="#394250">Design Critique</text>
          <text x="22" y="30" font-size="11" fill="#7a838f">오전 10:00-오전 10:30</text>
          <rect x="229" y="10" width="9" height="7" rx="2" fill="none" stroke="#9aa3ad"/>
        </g>
        <g transform="translate(0 68)">
          <rect x="0" y="0" width="247" height="37" rx="6" fill="#ffffff" stroke="#eef1ec"/>
          <circle cx="11" cy="12" r="3" fill="#64d2ec"/>
          <text x="22" y="14" font-size="12" font-weight="900" fill="#394250">Mobile Team Sync</text>
          <text x="22" y="30" font-size="11" fill="#7a838f">오후 1:30-오후 2:00</text>
          <rect x="229" y="10" width="9" height="7" rx="2" fill="none" stroke="#9aa3ad"/>
        </g>
        <g transform="translate(0 105)">
          <rect x="0" y="0" width="247" height="37" rx="6" fill="#ffffff" stroke="#eef1ec"/>
          <circle cx="11" cy="12" r="3" fill="#64d2ec"/>
          <text x="22" y="14" font-size="12" font-weight="900" fill="#394250">Product Review</text>
          <text x="22" y="30" font-size="11" fill="#7a838f">오후 3:00-오후 3:45</text>
          <rect x="229" y="10" width="9" height="7" rx="2" fill="none" stroke="#9aa3ad"/>
        </g>
        <g transform="translate(0 142)">
          <rect x="0" y="0" width="247" height="37" rx="6" fill="#ffffff" stroke="#eef1ec"/>
          <circle cx="11" cy="12" r="3" fill="#64d2ec"/>
          <text x="22" y="14" font-size="12" font-weight="900" fill="#394250">APAC Standup</text>
          <text x="22" y="30" font-size="11" fill="#7a838f">오후 5:00-오후 5:20</text>
          <rect x="229" y="10" width="9" height="7" rx="2" fill="none" stroke="#9aa3ad"/>
        </g>
      </g>
    </g>

    <g transform="translate(122 581)">
      <rect x="21" y="0" width="34" height="27" rx="8" fill="#e8f2ff"/>
      <rect x="68" y="0" width="34" height="27" rx="8" fill="#dff1ed"/>
      <rect x="111" y="0" width="38" height="27" rx="8" fill="#ddefd5"/>
      <rect x="160" y="0" width="34" height="27" rx="8" fill="#fff1dd"/>
      <rect x="206" y="0" width="34" height="27" rx="8" fill="#eff1ee"/>
      <text x="38" y="19" text-anchor="middle" font-size="17" font-family="-apple-system,BlinkMacSystemFont,Segoe UI,sans-serif">↻</text>
      <text x="85" y="19" text-anchor="middle" font-size="14" font-family="-apple-system,BlinkMacSystemFont,Segoe UI,sans-serif">▣</text>
      <text x="130" y="19" text-anchor="middle" font-size="16" font-family="-apple-system,BlinkMacSystemFont,Segoe UI,sans-serif">▦</text>
      <text x="177" y="19" text-anchor="middle" font-size="15" font-family="-apple-system,BlinkMacSystemFont,Segoe UI,sans-serif">✉</text>
      <text x="223" y="19" text-anchor="middle" font-size="15" font-family="-apple-system,BlinkMacSystemFont,Segoe UI,sans-serif">⚙</text>
    </g>
  </g>
</svg>
